<svg width="121" height="60" viewBox="0 0 121 60" fill="none" xmlns="http://www.w3.org/2000/svg">
<path d="M22.5315 42.8415C25.1996 42.8415 27.2392 43.5937 28.6503 45.0982C30.087 46.6026 30.8053 48.6259 30.8053 51.1679C30.8053 56.7447 28.0474 59.5331 22.5315 59.5331H14.7963V32.2974H29.3045V36.7719H19.5298V42.8415H22.5315ZM22.1851 54.9809C24.6737 54.9809 25.918 53.7099 25.918 51.1679C25.918 49.8969 25.5845 48.9371 24.9174 48.2887C24.276 47.6402 23.3653 47.316 22.1851 47.316H19.5298V54.9809H22.1851Z" fill="#249D6A"/>
<path d="M39.1472 55.0198H48.3447V59.5331H34.4137V32.2974H47.9598V36.8108H39.1472V43.5419H47.2286V47.8996H39.1472V55.0198Z" fill="#249D6A"/>
<path d="M54.0726 32.2974H68.3499V59.5331H63.6165V36.8108H58.6136C58.2032 44.6961 57.7798 50.0395 57.3437 52.8409C56.9332 55.5904 56.1251 57.471 54.9193 58.4826C53.7134 59.4683 51.9945 59.9611 49.7625 59.9611V55.6423C50.6091 55.6423 51.2634 55.3699 51.7252 54.8252C52.187 54.2546 52.5461 53.204 52.8027 51.6737C53.1875 49.3651 53.6108 42.9064 54.0726 32.2974Z" fill="#249D6A"/>
<path d="M81.1582 60C78.49 60 76.3991 59.1829 74.8854 57.5488C73.3974 55.9146 72.6534 53.658 72.6534 50.7788V41.0517C72.6534 38.1725 73.3974 35.9159 74.8854 34.2817C76.3991 32.6476 78.49 31.8305 81.1582 31.8305C83.8007 31.8305 85.8659 32.6476 87.354 34.2817C88.8676 35.9159 89.6245 38.1725 89.6245 41.0517V50.7788C89.6245 53.658 88.8676 55.9146 87.354 57.5488C85.8659 59.1829 83.8007 60 81.1582 60ZM81.1582 55.3699C83.5441 55.3699 84.7371 53.8396 84.7371 50.7788V41.0517C84.7371 37.991 83.5441 36.4606 81.1582 36.4606C78.7466 36.4606 77.5407 37.991 77.5407 41.0517V50.7788C77.5407 53.8396 78.7466 55.3699 81.1582 55.3699Z" fill="#249D6A"/>
<path d="M98.6758 55.0198H107.873V59.5331H93.9424V32.2974H107.488V36.8108H98.6758V43.5419H106.757V47.8996H98.6758V55.0198Z" fill="#249D6A"/>
<path d="M11.1224 24.624C10.8902 25.6908 10.2196 26.5501 9.11072 27.2021C8.00183 27.8541 6.93144 28.0184 5.89955 27.695C4.8612 27.3603 3.98735 26.5763 3.27797 25.3431L0.80162 21.0379C0.092248 19.8047 -0.146319 18.6547 0.0859182 17.588C0.311707 16.51 0.979044 15.645 2.08793 14.993C3.19682 14.341 4.27043 14.1823 5.30878 14.517C6.34067 14.8405 7.2113 15.6188 7.92067 16.8521L10.397 21.1572C11.1064 22.3905 11.3482 23.5461 11.1224 24.624ZM8.15306 25.5373C8.75186 25.1852 9.09365 24.7217 9.17843 24.1467C9.26321 23.5717 9.09279 22.9143 8.66716 22.1743L6.19081 17.8692C5.76519 17.1293 5.28428 16.6544 4.74808 16.4445C4.21188 16.2347 3.64438 16.3058 3.04558 16.6579C1.82581 17.3751 1.65444 18.4961 2.53148 20.0208L5.00784 24.326C5.88488 25.8507 6.93329 26.2545 8.15306 25.5373Z" fill="#249D6A"/>
<path d="M21.0976 20.9558L19.1485 21.8853L15.1081 18.2412L15.3025 23.7195L13.3534 24.649L13.2799 16.8761L7.78127 12.2496L9.71297 11.3284L13.4335 14.6518L13.2457 9.64358L15.1774 8.72234L15.2116 15.9548L21.0976 20.9558Z" fill="#249D6A"/>
<path d="M27.7296 17.6197C27.3238 18.632 26.5202 19.3656 25.3189 19.8204C24.1176 20.2753 23.0351 20.2558 22.0715 19.7621C21.1033 19.2562 20.3718 18.3352 19.8769 16.9992L18.1494 12.3353C17.6545 10.9993 17.6099 9.82512 18.0158 8.81283C18.4171 7.78839 19.2184 7.04874 20.4197 6.59389C21.621 6.13903 22.7057 6.16456 23.6739 6.67046C24.6375 7.16423 25.3668 8.07911 25.8617 9.41513L27.5892 14.079C28.0841 15.415 28.1309 16.5953 27.7296 17.6197ZM24.6508 18.0168C25.2995 17.7712 25.7133 17.3722 25.8922 16.8197C26.0711 16.2672 26.0121 15.5902 25.7152 14.7886L23.9876 10.1247C23.6907 9.32309 23.2953 8.77342 22.8015 8.47568C22.3077 8.17794 21.7364 8.15189 21.0877 8.39751C19.7663 8.89785 19.4115 9.97392 20.0234 11.6257L21.7509 16.2896C22.3628 17.9414 23.3294 18.5172 24.6508 18.0168Z" fill="#249D6A"/>
<path d="M32.8149 3.06293L33.3245 4.85805L30.6243 5.64161L33.8305 16.9359L31.9255 17.4887L28.7193 6.1944L26.0375 6.9726L25.5279 5.17749L32.8149 3.06293Z" fill="#249D6A"/>
<path d="M40.2937 1.62801L42.1981 1.23637L44.8828 14.581L42.9784 14.9726L41.8009 9.12004L38.0675 9.88781L39.245 15.7404L37.3406 16.132L34.6559 2.78742L36.5603 2.39578L37.7032 8.07676L41.4366 7.30899L40.2937 1.62801Z" fill="#249D6A"/>
<path d="M46.1089 14.5914L44.5678 1.06302L46.4602 0.842657L47.1339 6.75651C47.2894 8.12223 47.3676 9.4317 47.3683 10.6849L47.43 10.7169C47.741 9.4796 47.9686 8.64368 48.1128 8.20912L50.5126 0.370778L52.4815 0.141515L54.0226 13.6699L52.1301 13.8903L51.4587 7.99576C51.3104 6.69446 51.2174 5.36715 51.1794 4.01384L51.1177 3.98186C50.8572 5.09577 50.6332 5.9639 50.4459 6.58625L48.0586 14.3644L46.1089 14.5914Z" fill="#249D6A"/>
<path d="M59.7443 0.0563183L61.6869 0L62.074 13.6511L60.1314 13.7075L59.9886 8.67093C59.4303 8.89471 58.8241 9.01608 58.1702 9.03504C56.9392 9.07072 55.9605 8.72283 55.2339 7.99136C54.507 7.24693 54.124 6.18762 54.0851 4.81343L53.9549 0.224158L55.8975 0.16784L56.0293 4.81545C56.0753 6.43595 56.842 7.22465 58.3294 7.18153C58.9192 7.16443 59.455 7.05158 59.9367 6.843L59.7443 0.0563183Z" fill="#249D6A"/>
<path d="M63.9094 13.824L64.633 0.225854L66.5736 0.331414L66.2852 5.75126L67.9376 5.84114C69.2185 5.91082 70.1916 6.33391 70.8568 7.11042C71.522 7.88693 71.8212 8.90329 71.7544 10.1595C71.6834 11.4934 71.2835 12.4912 70.5546 13.1529C69.8263 13.8017 68.8089 14.0905 67.5024 14.0195L63.9094 13.824ZM65.9462 12.123L67.5025 12.2076C68.1814 12.2446 68.7165 12.0853 69.108 11.73C69.5001 11.3617 69.7162 10.8019 69.7562 10.0508C69.7954 9.31262 69.6393 8.74564 69.2879 8.34986C68.9364 7.95409 68.4212 7.73774 67.7423 7.70081L66.186 7.61615L65.9462 12.123Z" fill="#249D6A"/>
<path d="M71.0288 14.369L74.5956 9.5508C73.8666 9.19082 73.3372 8.64187 73.0075 7.90395C72.6922 7.15488 72.6006 6.27899 72.7329 5.27625C72.9144 3.90071 73.4048 2.88085 74.2042 2.21667C75.0035 1.55249 76.0326 1.30526 77.2914 1.475L80.7245 1.93791L78.944 15.4362L77.0176 15.1765L77.6612 10.2978L76.4787 10.1384L73.1649 14.657L71.0288 14.369ZM76.3961 8.26273L77.9028 8.46589L78.554 3.52936L77.0663 3.32877C75.7058 3.14532 74.9179 3.86992 74.7025 5.50257C74.5974 6.29962 74.6876 6.93983 74.9733 7.42321C75.2606 7.89374 75.7349 8.17357 76.3961 8.26273Z" fill="#249D6A"/>
<path d="M92.3562 10.4793C93.5769 10.8335 94.4254 11.4643 94.9018 12.3717C95.3906 13.2826 95.4633 14.3427 95.1201 15.5519C94.752 16.8483 94.1316 17.741 93.2588 18.2298C92.4019 18.7098 91.3508 18.7691 90.1055 18.4077L86.5545 17.3773L90.2702 4.2879L97.0024 6.24145L96.4981 8.01787L91.6339 6.60638L90.6731 9.99092L92.3562 10.4793ZM90.5041 16.5804C91.1576 16.77 91.7206 16.7378 92.1931 16.4836C92.6692 16.2169 93.0098 15.7221 93.2151 14.9991C93.4168 14.2885 93.3796 13.6908 93.1036 13.2059C92.8398 12.7246 92.3874 12.3909 91.7462 12.2048L90.1742 11.7486L88.932 16.1242L90.5041 16.5804Z" fill="#249D6A"/>
<path d="M100.3 22.1432L100.677 19.352L97.3526 18.0656L95.8079 20.4049L93.903 19.6679L101.88 8.17336L103.839 8.93126L102.187 22.8733L100.3 22.1432ZM98.3944 16.5107L100.946 17.4981L101.448 13.7763C101.59 12.8589 101.778 11.8902 102.013 10.8702L101.959 10.8493C101.368 11.9398 100.868 12.788 100.46 13.3939L98.3944 16.5107Z" fill="#249D6A"/>
<path d="M110.903 19.4479C112.113 20.525 112.343 21.8526 111.593 23.4307C111.065 24.5413 110.293 25.2526 109.276 25.5646C108.272 25.8822 107.22 25.7742 106.122 25.2406C105 24.6958 104.265 23.9069 103.916 22.8742C103.584 21.8353 103.645 20.7641 104.098 19.6605L105.867 20.5199C105.624 21.1212 105.585 21.6991 105.748 22.2533C105.912 22.8076 106.3 23.2336 106.913 23.5313C107.502 23.8177 108.065 23.8755 108.602 23.7045C109.144 23.5219 109.565 23.1149 109.865 22.4837C110.177 21.829 110.219 21.2309 109.992 20.6892C109.766 20.1475 109.323 19.7166 108.664 19.3965L107.745 18.9499L108.495 17.3718L109.258 17.7425C110.599 18.394 111.575 18.0769 112.187 16.791C112.453 16.2299 112.511 15.7185 112.361 15.2568C112.222 14.8008 111.886 14.4435 111.354 14.1852C110.21 13.6291 109.269 14.0211 108.533 15.3612L106.798 14.5187C107.406 13.3894 108.177 12.6347 109.112 12.2544C110.047 11.874 111.064 11.9507 112.163 12.4843C113.215 12.9954 113.903 13.7183 114.227 14.6528C114.557 15.5757 114.464 16.5807 113.947 17.6679C113.319 18.9889 112.305 19.5822 110.903 19.4479Z" fill="#249D6A"/>
<path d="M115.366 30.2278L116.19 27.5368L113.119 25.7164L111.216 27.7677L109.456 26.7246L119.191 16.7092L121 17.7818L117.108 31.261L115.366 30.2278ZM114.399 24.3553L116.756 25.7527L117.856 22.1647C118.144 21.2832 118.487 20.3588 118.884 19.3916L118.834 19.3621C118.074 20.3396 117.444 21.0934 116.943 21.6235L114.399 24.3553Z" fill="#249D6A"/>
<path d="M6 46C6 47.6569 4.65685 49 3 49C1.34315 49 1.33389e-08 47.6569 1.33389e-08 46C1.33389e-08 44.3431 1.34315 43 3 43C4.65685 43 6 44.3431 6 46Z" fill="#249D6A"/>
<path d="M121 46C121 47.6569 119.657 49 118 49C116.343 49 115 47.6569 115 46C115 44.3431 116.343 43 118 43C119.657 43 121 44.3431 121 46Z" fill="#249D6A"/>
</svg>
